<?xml version="1.0" encoding="utf-8"?><svg xmlns="http://www.w3.org/2000/svg" viewBox="0 0 1499.52465 305"><path d="M546.81792,298.94781l-22.34738-62.65322H399.96083l-21.94964,62.65322H322.53985L430.68833,14.80947h63.05346L603.88523,298.94781ZM416.32206,190.40159h91.786L496.935,159.67284q-13.9679-35.51916-35.11892-97.3744-16.76148,49.4852-34.71868,97.3744Z" transform="translate(-1.47535 -0.47535)" fill="#fff"/><path d="M739.96825,90.63323V136.924H727.198q-28.735,0-44.0994,14.56638-15.36188,14.56639-15.36188,42.90117V298.94781H617.45226V93.02719h48.68595v36.7149q17.163-39.90936,61.45749-39.90685A87.79843,87.79843,0,0,1,739.96825,90.63323Z" transform="translate(-1.47535 -0.47535)" fill="#fff"/><path d="M869.26963,131.33806H828.56479V242.67848q0,9.97734,5.38579,13.96852,5.38829,3.98868,18.15858,3.98994h17.16047v38.31087q-16.36374,1.59471-26.33857,1.596-33.523,0-48.88732-12.57017-15.36187-12.57016-15.36438-40.107V131.33806H746.75489V93.02719h31.92447V33.16567h49.88543V93.02719h40.70484Z" transform="translate(-1.47535 -0.47535)" fill="#fff"/><path d="M1030.89072,93.02719h52.27689l-76.62174,205.92062h-57.8653L872.45907,93.02719h53.87287l19.95467,55.47134q13.966,43.49654,32.32472,104.954,14.76525-49.48143,32.32472-105.35427Z" transform="translate(-1.47535 -0.47535)" fill="#fff"/><path d="M1281.51111,211.552H1127.46964q2.7917,26.33731,16.5601,39.70672,13.7709,13.36941,36.915,13.36816,34.31842,0,47.09122-29.53052h48.287q-7.98113,31.52674-33.523,50.08306-25.53809,18.55881-62.25548,18.55632-45.89049,0-74.22528-29.53052-28.33728-29.53052-28.33478-78.21771,0-48.68595,27.93454-78.21772,28.33353-29.53052,73.82754-29.53051,46.69349,0,74.22778,30.72624,27.53805,30.73125,27.5368,80.61418Zm-153.64373-35.11892h103.36055q-3.1932-22.74637-16.76022-35.91691-13.56828-13.17054-35.11893-13.168Q1135.053,127.34812,1127.86738,176.43307Z" transform="translate(-1.47535 -0.47535)" fill="#fff"/><path d="M1501,211.552H1346.95853q2.79171,26.33731,16.5601,39.70672,13.7709,13.36941,36.915,13.36816,34.31844,0,47.09123-29.53052h48.287q-7.98113,31.52674-33.523,50.08306-25.53808,18.55881-62.25548,18.55632-45.8905,0-74.22528-29.53052-28.33729-29.53052-28.33479-78.21771,0-48.68595,27.93454-78.21772,28.33355-29.53052,73.82754-29.53051,46.69348,0,74.22778,30.72624,27.538,30.73125,27.5368,80.61418Zm-153.64373-35.11892h103.36056q-3.1932-22.74637-16.76023-35.91691-13.56828-13.17054-35.11892-13.168Q1354.5419,127.34812,1347.35627,176.43307Z" transform="translate(-1.47535 -0.47535)" fill="#fff"/><path d="M153.97535.47535a152.5,152.5,0,1,0,152.5,152.5A152.50006,152.50006,0,0,0,153.97535.47535ZM49.86631,229.38129h-.87375L155.30156,38.608l23.23414,41.6943.00047.00062,1.59054,2.8541c4.36236,8.35828,14.94787,32.92487-4.98579,43.31555-.12219.06391-.22786.12189-.34585.18439a336.56422,336.56422,0,0,0-92.99329,65.74576,341.965,341.965,0,0,0-31.58167,36.38869Zm1.87,0c32.36922-31.32637,68.62387-49.9812,100.62214-61.06687a305.977,305.977,0,0,1,29.52183-8.59c5.67983-1.34647,11.20427-2.47333,16.57769-3.4512,6.96661-.58026,21.8992,1.29255,35.55359,23.58171l3.82479,6.86359.00047.00078,23.77341,42.662Z" transform="translate(-1.47535 -0.47535)" fill="#fcfcfc"/></svg>